<svg width="16" height="16" viewBox="0 0 16 16" fill="none" xmlns="http://www.w3.org/2000/svg">
<path fill-rule="evenodd" clip-rule="evenodd" d="M2.05 3.71H3.52L3.75 3.37H5.55L6.68 3L6.34 4.16L6.78 3.92L6.91 6.98H13.13V6.19H7.97L7.66 4.8L7.97 3.41H14.19V4.94L13.41 4.16H8.58L8.41 4.8L8.58 5.48H13.51L14.19 6.16V8.68L14.9 11.39L14.39 12.82H12.18L12.45 12.11L13.2 11.9L13.54 11.26L12.59 10.34L11.27 11.97L11.13 12.82H8.78L8.95 12.11L9.6 11.9L11.37 8.98L9.02 10H6.81L6.2 11.22L6.85 12.18L6.68 12.82H4.23L4.37 12.11L5.11 11.9L4.47 10.31L2.97 12.18L3.14 12.82H1L1.17 12.11L1.71 11.8L2.67 10.38L2.26 9.05L1.48 9.42L2.63 6.37L2.12 5.65L2.43 5.28L3.17 5.79L3.79 5.11H1.85L1.71 5.45L1.37 5.38L1.44 4.83H3.69L3.41 4.5L2.36 4.67L2.05 3.71Z" fill="white"/>
</svg>
